<svg width="158" height="133" viewBox="0 0 158 133" fill="none" xmlns="http://www.w3.org/2000/svg">
<path d="M97.5336 33.097H60.4336V21.55C60.4336 11.305 68.7386 3 78.9836 3C89.2286 3 97.5336 11.305 97.5336 21.55V33.097Z" stroke="#F3630F" stroke-width="4.252" stroke-miterlimit="10"/>
<path d="M128.485 132.6H29.4846C26.5146 132.6 24.1746 130.06 24.4246 127.11L25.1946 117.87L25.8846 109.68L26.2446 105.42L26.9246 97.2703L32.7846 27.2203C33.0046 24.5903 35.2046 22.5703 37.8346 22.5703H120.125C122.765 22.5703 124.965 24.5903 125.175 27.2203L129.715 81.4003L130.305 88.4103L130.335 88.7103L130.935 95.9203L133.545 127.11C133.795 130.06 131.455 132.6 128.485 132.6Z" fill="url(#paint0_linear_2140_293)"/>
<path d="M99.7197 123.142H57.9887C55.1017 123.142 52.7617 120.802 52.7617 117.915V43.227C52.7617 40.34 55.1017 38 57.9887 38H99.7197C102.607 38 104.947 40.34 104.947 43.227V117.915C104.947 120.802 102.607 123.142 99.7197 123.142Z" fill="white"/>
<path d="M93.7909 109.995H63.9138C61.8468 109.995 60.1719 108.32 60.1719 106.253V52.781C60.1719 50.714 61.8468 49.0391 63.9138 49.0391H93.7909C95.8579 49.0391 97.5329 50.714 97.5329 52.781V106.253C97.5329 108.32 95.8579 109.995 93.7909 109.995Z" fill="#C94E06"/>
<path d="M65.3653 96.6099C64.5705 96.7221 63.7898 96.7334 63.023 96.6437C62.2642 96.5435 61.6316 96.3689 61.1252 96.1199L61.7405 93.9688C62.214 94.1847 62.7456 94.3453 63.3355 94.4505C63.9332 94.5452 64.514 94.5527 65.0777 94.4731C65.4567 94.4196 65.7571 94.3442 65.979 94.2469C66.1996 94.1404 66.3529 94.0244 66.4389 93.8992C66.5328 93.7634 66.5687 93.6169 66.5465 93.4598C66.5152 93.238 66.3887 93.0768 66.1671 92.9761C65.9456 92.8754 65.6672 92.8064 65.332 92.7689C64.9968 92.7313 64.6246 92.6991 64.2155 92.672C63.8156 92.6436 63.4078 92.5928 62.9921 92.5195C62.5857 92.445 62.2064 92.3289 61.8542 92.1712C61.5008 92.0043 61.1989 91.7689 60.9486 91.4649C60.697 91.1517 60.5347 90.7363 60.4616 90.2187C60.3794 89.6365 60.4621 89.0876 60.7098 88.5719C60.9667 88.0549 61.3937 87.6081 61.991 87.2316C62.5882 86.855 63.3628 86.5996 64.3146 86.4652C64.9523 86.3751 65.5866 86.361 66.2174 86.4227C66.8562 86.4739 67.4354 86.6042 67.9551 86.8136L67.3972 88.9708C66.8999 88.7865 66.4164 88.6663 65.9466 88.6101C65.4754 88.5446 65.0273 88.5419 64.6022 88.602C64.2233 88.6555 63.9242 88.7401 63.7049 88.8559C63.4843 88.9625 63.3323 89.0876 63.2489 89.2313C63.1655 89.3751 63.1356 89.5301 63.1591 89.6965C63.1891 89.909 63.3103 90.0663 63.5226 90.1683C63.7429 90.2597 64.0206 90.3242 64.3558 90.3617C64.699 90.3886 65.0705 90.4163 65.4704 90.4447C65.8795 90.4717 66.2873 90.5226 66.6937 90.5971C67.1081 90.6612 67.492 90.7766 67.8454 90.9435C68.1976 91.1012 68.4949 91.3372 68.7372 91.6518C68.9875 91.9558 69.1486 92.3619 69.2203 92.8702C69.2999 93.434 69.2119 93.9789 68.9563 94.5052C68.7087 95.0209 68.2862 95.467 67.689 95.8435C67.101 96.2187 66.3264 96.4742 65.3653 96.6099ZM75.3669 94.9998L75.1692 93.5997L74.94 93.2785L74.576 90.7001C74.5173 90.2842 74.3429 89.9837 74.0528 89.7984C73.7706 89.6026 73.3523 89.5438 72.7978 89.6221C72.4374 89.673 72.0808 89.7846 71.7281 89.957C71.3741 90.1201 71.0821 90.3215 70.852 90.5614L69.7123 88.8984C70.0983 88.5611 70.5766 88.2768 71.1471 88.0454C71.7257 87.8035 72.3107 87.6408 72.9021 87.5573C74.122 87.385 75.1045 87.5338 75.8495 88.0036C76.6024 88.4628 77.063 89.2885 77.2314 90.4807L77.8205 94.6533L75.3669 94.9998ZM73.1665 95.4377C72.5658 95.5225 72.0432 95.4926 71.5986 95.348C71.154 95.2034 70.796 94.9712 70.5246 94.6513C70.2625 94.3302 70.1007 93.9524 70.0394 93.5181C69.9742 93.056 70.0336 92.6423 70.2176 92.2769C70.4096 91.9011 70.7381 91.5908 71.2032 91.346C71.6669 91.092 72.2869 90.9102 73.0632 90.8006L74.8376 90.5501L75.0313 91.9225L73.6174 92.1221C73.1923 92.1821 72.9017 92.2938 72.7457 92.4573C72.5989 92.6194 72.5418 92.816 72.5744 93.047C72.6071 93.278 72.721 93.4505 72.9161 93.5643C73.1113 93.6781 73.3614 93.7135 73.6663 93.6705C73.9528 93.63 74.2018 93.5242 74.4133 93.3529C74.6327 93.1711 74.7769 92.9245 74.8461 92.6131L75.3435 93.5326C75.278 94.0697 75.0608 94.501 74.692 94.8264C74.3312 95.1413 73.8227 95.3451 73.1665 95.4377ZM83.298 86.0894C83.8802 86.0072 84.424 86.0529 84.9292 86.2267C85.4332 86.3912 85.8537 86.6994 86.1909 87.1513C86.5373 87.602 86.7653 88.2155 86.8749 88.9918L87.4817 93.2892L84.8479 93.6611L84.3018 89.7934C84.2261 89.2574 84.0604 88.8849 83.8046 88.676C83.5568 88.4564 83.2389 88.3741 82.8507 88.4289C82.5735 88.468 82.3285 88.5686 82.1157 88.7306C81.9016 88.8834 81.7481 89.0983 81.6553 89.3753C81.5625 89.6524 81.5454 89.9988 81.6041 90.4147L82.1169 94.0467L79.4831 94.4186L78.4222 86.9051L80.9313 86.5508L81.2327 88.6856L80.6595 88.1303C80.869 87.5446 81.2043 87.0825 81.6655 86.7441C82.1254 86.3963 82.6696 86.1781 83.298 86.0894ZM93.7239 92.4078L93.5262 91.0077L93.297 90.6866L92.9329 88.1081C92.8742 87.6923 92.6998 87.3917 92.4097 87.2064C92.1276 87.0106 91.7093 86.9519 91.1548 87.0302C90.7943 87.081 90.4378 87.1927 90.0851 87.365C89.7311 87.5281 89.439 87.7296 89.209 87.9694L88.0693 86.3064C88.4552 85.9692 88.9335 85.6848 89.5041 85.4534C90.0826 85.2115 90.6676 85.0488 91.2591 84.9653C92.479 84.793 93.4615 84.9418 94.2065 85.4116C94.9594 85.8708 95.42 86.6965 95.5884 87.8887L96.1775 92.0613L93.7239 92.4078ZM91.5235 92.8457C90.9228 92.9305 90.4001 92.9007 89.9555 92.7561C89.511 92.6115 89.153 92.3792 88.8816 92.0594C88.6194 91.7382 88.4577 91.3604 88.3964 90.9261C88.3311 90.464 88.3905 90.0503 88.5746 89.685C88.7666 89.3091 89.0951 88.9988 89.5601 88.754C90.0238 88.5 90.6438 88.3182 91.4201 88.2086L93.1945 87.9581L93.3883 89.3305L91.9743 89.5301C91.5492 89.5901 91.2587 89.7019 91.1026 89.8653C90.9559 90.0274 90.8988 90.224 90.9314 90.455C90.964 90.6861 91.0779 90.8585 91.2731 90.9723C91.4683 91.0862 91.7183 91.1215 92.0233 91.0785C92.3098 91.038 92.5588 90.9322 92.7702 90.7609C92.9896 90.5791 93.1339 90.3325 93.2031 90.0212L93.7005 90.9406C93.635 91.4777 93.4178 91.909 93.049 92.2344C92.6881 92.5493 92.1796 92.7531 91.5235 92.8457Z" fill="white"/>
<path d="M104.947 70.287V42.413C104.947 39.976 102.607 38 99.7197 38H57.9887C55.1017 38 52.7617 39.976 52.7617 42.413V70.287H104.947Z" fill="#BAC7DF"/>
<path d="M51.6836 66.1196C47.9326 66.1196 44.8906 63.0786 44.8906 59.3266V51.7656H58.4756V59.3266C58.4756 63.0786 55.4346 66.1196 51.6836 66.1196Z" fill="#C94E06"/>
<path d="M65.2686 66.1196C61.5176 66.1196 58.4766 63.0786 58.4766 59.3266V51.7656H72.0616V59.3266C72.0606 63.0786 69.0196 66.1196 65.2686 66.1196Z" fill="#EDF1F7"/>
<path d="M78.8545 66.1196C75.1035 66.1196 72.0625 63.0786 72.0625 59.3266V51.7656H85.6475V59.3266C85.6465 63.0786 82.6055 66.1196 78.8545 66.1196Z" fill="#C94E06"/>
<path d="M92.4375 66.1196C88.6865 66.1196 85.6445 63.0786 85.6445 59.3266V51.7656H99.2295V59.3266C99.2295 63.0786 96.1885 66.1196 92.4375 66.1196Z" fill="#EDF1F7"/>
<path d="M106.023 66.1196C102.272 66.1196 99.2305 63.0786 99.2305 59.3266V51.7656H112.815V59.3266C112.815 63.0786 109.774 66.1196 106.023 66.1196Z" fill="#C94E06"/>
<path d="M58.4756 51.767H44.8906L53.3916 38H63.5766L58.4756 51.767Z" fill="#F3630F"/>
<path d="M72.0616 51.767H58.4766L63.5776 38H73.7616L72.0616 51.767Z" fill="white"/>
<path d="M85.6475 51.767H72.0625L73.7625 38H83.9475L85.6475 51.767Z" fill="#F3630F"/>
<path d="M99.2303 51.767H85.6453L83.9453 38H94.1293L99.2303 51.767Z" fill="white"/>
<path d="M112.815 51.767H99.2299L94.1289 38H104.314L112.815 51.767Z" fill="#F3630F"/>
<path d="M130.931 94.6839C116.403 103.445 97.0004 110.882 75.9764 115.04C56.2644 118.926 38.5194 119.247 25.1914 116.636L25.8844 108.444C38.8154 111.674 56.6354 111.711 76.5574 107.776C97.2224 103.692 116.254 96.1189 130.299 87.1719L130.931 94.6839Z" fill="#C94E06"/>
<path d="M104.946 106.934V99.6641C96.1127 103.021 86.5297 105.81 76.5587 107.78C68.1827 109.434 60.1867 110.378 52.7617 110.686V117.918C52.7617 117.969 52.7757 118.017 52.7767 118.068C60.0637 117.633 67.8497 116.647 75.9777 115.044C86.1367 113.034 95.9107 110.253 104.946 106.934Z" fill="#BAC7DF"/>
<path d="M130.336 88.7162C115.456 96.5762 95.9561 102.896 75.0161 105.936C56.1361 108.676 39.1861 108.286 26.2461 105.426L26.9261 97.2762C39.5461 100.766 56.6961 101.506 75.9661 98.7162C96.3661 95.7562 115.346 89.3863 129.716 81.4062L130.306 88.4162L130.336 88.7162Z" fill="white"/>
<path d="M155.474 54.3125C155.557 55.3645 155.539 56.4445 155.393 57.5555C152.895 76.5655 117.088 96.8735 75.4169 102.917C33.7459 108.959 1.9899 98.4465 4.4879 79.4365C4.6339 78.3245 4.9049 77.2085 5.2729 76.0905C2.4039 79.7575 0.613909 83.4805 0.131909 87.1475C-2.36609 106.158 30.9149 116.449 74.4689 110.134C118.022 103.819 155.355 83.2885 157.853 64.2785C158.335 60.6125 157.472 57.2745 155.474 54.3125Z" fill="url(#paint1_linear_2140_293)"/>
<defs>
<linearGradient id="paint0_linear_2140_293" x1="78.9846" y1="22.5703" x2="138" y2="144" gradientUnits="userSpaceOnUse">
<stop stop-color="#6385FF"/>
<stop offset="1" stop-color="#C94E06"/>
</linearGradient>
<linearGradient id="paint1_linear_2140_293" x1="78.9919" y1="54.3125" x2="116.5" y2="124.5" gradientUnits="userSpaceOnUse">
<stop stop-color="#2A4BC2"/>
<stop offset="1" stop-color="#C94E06"/>
</linearGradient>
</defs>
</svg>
